<mxfile host="Electron" modified="2023-08-27T10:05:18.200Z" agent="Mozilla/5.0 (Windows NT 10.0; Win64; x64) AppleWebKit/537.36 (KHTML, like Gecko) draw.io/21.6.8 Chrome/114.0.5735.289 Electron/25.5.0 Safari/537.36" etag="LgXKXfwVcxknl2lxlhKV" version="21.6.8" type="device">
  <diagram name="Page-1" id="f-wPEIbrO9KJdeFUxv-Z">
    <mxGraphModel dx="780" dy="544" grid="1" gridSize="10" guides="1" tooltips="1" connect="1" arrows="1" fold="1" page="1" pageScale="1" pageWidth="850" pageHeight="1100" math="0" shadow="0">
      <root>
        <mxCell id="0" />
        <mxCell id="1" parent="0" />
        <mxCell id="1nIcBYumRWhCjbUFAmCS-4" style="edgeStyle=orthogonalEdgeStyle;rounded=0;orthogonalLoop=1;jettySize=auto;html=1;entryX=0.5;entryY=0;entryDx=0;entryDy=0;" edge="1" parent="1" source="1nIcBYumRWhCjbUFAmCS-1" target="1nIcBYumRWhCjbUFAmCS-3">
          <mxGeometry relative="1" as="geometry" />
        </mxCell>
        <mxCell id="1nIcBYumRWhCjbUFAmCS-1" value="" style="ellipse;whiteSpace=wrap;html=1;aspect=fixed;" vertex="1" parent="1">
          <mxGeometry x="190" y="280" width="30" height="30" as="geometry" />
        </mxCell>
        <mxCell id="1nIcBYumRWhCjbUFAmCS-2" value="&lt;font color=&quot;#000000&quot;&gt;Exit&lt;/font&gt;" style="ellipse;whiteSpace=wrap;html=1;aspect=fixed;fillColor=#f5f5f5;gradientColor=#b3b3b3;strokeColor=#666666;" vertex="1" parent="1">
          <mxGeometry x="490" y="510" width="30" height="30" as="geometry" />
        </mxCell>
        <mxCell id="1nIcBYumRWhCjbUFAmCS-3" value="main" style="rounded=1;whiteSpace=wrap;html=1;fillColor=#0050ef;strokeColor=#001DBC;fontColor=#ffffff;" vertex="1" parent="1">
          <mxGeometry x="147.5" y="370" width="115" height="40" as="geometry" />
        </mxCell>
      </root>
    </mxGraphModel>
  </diagram>
</mxfile>
